<svg width="8" height="12" viewBox="0 0 8 12" fill="none" xmlns="http://www.w3.org/2000/svg">
<path d="M6.99753 5.57138L6.99746 5.57131L1.85849 0.446552L1.85845 0.446515C1.62166 0.210514 1.23833 0.210946 1.002 0.447703L1.00196 0.447743C0.765694 0.68459 0.766358 1.06816 1.00315 1.30431L1.00315 1.30431L5.71198 6.00013L1.00298 10.6959L1.00296 10.696C0.766211 10.9321 0.765547 11.3155 1.00177 11.5524L1.00183 11.5524C1.12018 11.671 1.27569 11.7304 1.43072 11.7304C1.58532 11.7304 1.74025 11.6714 1.85843 11.5536L1.85847 11.5536L6.99732 6.42908C6.99733 6.42907 6.99734 6.42906 6.99735 6.42905C7.11154 6.31542 7.17549 6.16094 7.17549 6.00014C7.17549 5.83911 7.11126 5.68493 6.99753 5.57138Z" fill="#999999" stroke="#999999" stroke-width="0.35"/>
</svg>
