<svg width="16" height="16" viewBox="0 0 16 16" fill="none" xmlns="http://www.w3.org/2000/svg">
<path fill-rule="evenodd" clip-rule="evenodd" d="M15.3034 1.36571H9.51486V0L0 1.47041V14.3591L9.51486 16V13.9758H15.3034C15.4787 13.9846 15.6504 13.9237 15.781 13.8062C15.9115 13.6887 15.9903 13.5242 16 13.3487V1.9922C15.9901 1.81682 15.9113 1.65248 15.7808 1.5351C15.6503 1.41771 15.4786 1.35681 15.3034 1.36571ZM15.3949 13.4528H9.49543L9.48571 12.372H10.9069V11.1133H9.47486L9.468 10.3695H10.9069V9.11082H9.45714L9.45029 8.36703H10.9069V7.10831H9.44572V6.36453H10.9069V5.10581H9.44572V4.36202H10.9069V3.10331H9.44572V1.95902H15.3949V13.4528Z" fill="white"/>
<path d="M11.7068 3.10153H14.177V4.36025H11.7068V3.10153ZM11.7068 5.10461H14.177V6.36332H11.7068V5.10461ZM11.7068 7.10768H14.177V8.3664H11.7068V7.10768ZM11.7068 9.11076H14.177V10.3695H11.7068V9.11076ZM11.7068 11.1138H14.177V12.3725H11.7068V11.1138Z" fill="white"/>
<path fill-rule="evenodd" clip-rule="evenodd" d="M2.48405 4.95182L3.71033 4.88145L4.48119 7.00353L5.39205 4.79391L6.61833 4.72354L5.12919 7.73645L6.61833 10.7568L5.32176 10.6693L4.44633 8.36695L3.57033 10.5817L2.37891 10.4764L3.76291 7.80854L2.48405 4.95182Z" fill="#55A932"/>
</svg>
