<svg width="167" height="40" viewBox="0 0 167 40" fill="none" xmlns="http://www.w3.org/2000/svg">
<path d="M68.6492 16.7094C68.6492 19.6727 67.8293 21.9529 66.1985 23.5499C64.5677 25.1562 62.2643 25.9501 59.2884 25.9501C56.3124 25.9501 54.0183 25.1469 52.3967 23.5499C50.7751 21.9436 49.9644 19.6634 49.9644 16.7094V2.1144C49.9644 1.70822 50.1671 1.50513 50.5724 1.50513H54.8383C55.2437 1.50513 55.4464 1.70822 55.4464 2.1144V16.7094C55.4464 18.0756 55.7781 19.1096 56.4322 19.8019C57.0956 20.4943 58.0446 20.8451 59.2976 20.8451C60.5506 20.8451 61.518 20.4943 62.1998 19.8019C62.8816 19.1096 63.2225 18.0756 63.2225 16.7094V2.1144C63.2225 1.70822 63.416 1.50513 63.7938 1.50513H68.0872C68.465 1.50513 68.6585 1.70822 68.6585 2.1144V16.7094H68.6492Z" fill="#FF6400"/>
<path d="M72.2424 25.5893C71.837 25.5893 71.6343 25.3862 71.6343 24.98V9.68348C71.6343 9.35115 71.7817 9.11113 72.0673 8.97266C73.0992 8.54801 74.2233 8.21568 75.4579 7.96643C76.6925 7.71718 77.9086 7.59717 79.1156 7.59717C81.6862 7.59717 83.6671 8.26183 85.0399 9.6004C86.4127 10.9297 87.1037 12.8683 87.1037 15.3978V24.98C87.1037 25.3862 86.901 25.5893 86.4956 25.5893H82.5338C82.1284 25.5893 81.9257 25.3862 81.9257 24.98V15.3978C81.9257 14.1607 81.6769 13.3207 81.1886 12.8591C80.7003 12.3975 80.0001 12.1667 79.1064 12.1667C78.6365 12.1667 78.1943 12.1944 77.7797 12.2498C77.365 12.3052 77.0241 12.3791 76.757 12.4714V24.98C76.757 25.3862 76.5635 25.5893 76.1857 25.5893H72.2424Z" fill="#FF6400"/>
<path d="M95.0642 2.82484C95.0642 3.60951 94.8062 4.27418 94.2903 4.82807C93.7743 5.38196 93.0925 5.64967 92.2449 5.64967C91.4157 5.64967 90.7339 5.37272 90.1995 4.82807C89.6651 4.28341 89.3979 3.60951 89.3979 2.82484C89.3979 1.994 89.6651 1.3201 90.1995 0.793908C90.7339 0.267713 91.4157 0 92.2449 0C93.0925 0 93.7743 0.267713 94.2903 0.793908C94.8062 1.3201 95.0642 1.994 95.0642 2.82484ZM90.264 25.5527C89.8586 25.5527 89.6559 25.3496 89.6559 24.9435V8.64067C89.6559 8.26217 89.8586 8.06832 90.264 8.06832H94.2258C94.6036 8.06832 94.797 8.26217 94.797 8.64067V24.9527C94.797 25.3589 94.6036 25.562 94.2258 25.562H90.264V25.5527Z" fill="#FF6400"/>
<path d="M102.657 8.17025C103.08 8.01331 103.569 7.87485 104.112 7.76407C104.656 7.65329 105.218 7.5979 105.771 7.5979C106.849 7.5979 107.825 7.7733 108.728 8.11486C109.622 8.46566 110.387 8.96416 111.022 9.61036C111.658 10.2566 112.156 11.0412 112.497 11.9459C112.847 12.8506 113.013 13.8753 113.013 15.02V18.3526C113.013 19.5619 112.819 20.642 112.423 21.5836C112.027 22.5252 111.492 23.3191 110.792 23.9745C110.101 24.6207 109.263 25.1192 108.295 25.47C107.319 25.8208 106.241 25.987 105.052 25.987C103.91 25.987 102.703 25.8762 101.431 25.6639C100.16 25.4516 98.9989 25.1562 97.9762 24.7777C97.663 24.6392 97.5063 24.4084 97.5063 24.0669V2.1144C97.5063 1.70822 97.709 1.50513 98.1144 1.50513H102.076C102.454 1.50513 102.647 1.70822 102.647 2.1144V8.17025H102.657ZM104.969 21.4174C105.891 21.4174 106.591 21.1866 107.079 20.7251C107.567 20.2635 107.816 19.5065 107.816 18.4541V14.9646C107.816 13.9768 107.577 13.2476 107.098 12.7768C106.618 12.306 105.918 12.0752 104.997 12.0752C104.545 12.0752 104.122 12.1213 103.725 12.2229C103.329 12.3244 102.961 12.4629 102.647 12.6475V21.0574C103.329 21.2974 104.103 21.4174 104.969 21.4174Z" fill="#FF6400"/>
<path d="M115.546 9.44346C116.329 8.9265 117.314 8.49262 118.503 8.1326C119.692 7.77257 121.009 7.59717 122.465 7.59717C124.796 7.59717 126.602 8.20644 127.882 9.425C129.172 10.6436 129.808 12.5452 129.808 15.1208V24.3338C129.808 24.6662 129.642 24.897 129.301 25.0077C128.297 25.3216 127.173 25.5616 125.948 25.7278C124.713 25.894 123.534 25.977 122.391 25.977C119.977 25.977 118.061 25.5062 116.633 24.5646C115.214 23.623 114.504 22.1644 114.504 20.1889C114.504 18.4442 115.149 17.1333 116.43 16.2563C117.72 15.3793 119.507 14.9454 121.82 14.9454C122.336 14.9454 122.833 14.9639 123.312 15.01C123.792 15.0562 124.243 15.1024 124.676 15.1485V14.8162C124.676 13.9207 124.483 13.2376 124.086 12.7668C123.69 12.296 122.953 12.0652 121.857 12.0652C121.12 12.0652 120.355 12.1575 119.572 12.3329C118.789 12.5083 118.153 12.7391 117.655 13.0068C117.499 13.0991 117.351 13.1268 117.204 13.1084C117.057 13.0899 116.937 12.9884 116.854 12.8037L115.481 10.182C115.297 9.84964 115.315 9.6004 115.546 9.44346ZM119.701 20.0689C119.701 20.6505 119.95 21.0936 120.438 21.3798C120.926 21.6752 121.58 21.8136 122.382 21.8136C122.76 21.8136 123.156 21.7859 123.57 21.7306C123.985 21.6752 124.344 21.6106 124.658 21.5459V18.5826C124.326 18.518 123.948 18.4626 123.534 18.4349C123.119 18.398 122.723 18.3888 122.345 18.3888C121.405 18.3888 120.733 18.5365 120.318 18.8226C119.913 19.118 119.701 19.5335 119.701 20.0689Z" fill="#FF6400"/>
<path d="M132.968 25.5893C132.563 25.5893 132.36 25.3862 132.36 24.98V9.68348C132.36 9.35115 132.508 9.11113 132.793 8.97266C133.825 8.54801 134.949 8.21568 136.184 7.96643C137.419 7.71718 138.635 7.59717 139.842 7.59717C142.412 7.59717 144.393 8.26183 145.766 9.6004C147.139 10.9297 147.83 12.8683 147.83 15.3978V24.98C147.83 25.3862 147.627 25.5893 147.222 25.5893H143.26C142.854 25.5893 142.652 25.3862 142.652 24.98V15.3978C142.652 14.1607 142.403 13.3207 141.915 12.8591C141.426 12.3975 140.726 12.1667 139.832 12.1667C139.363 12.1667 138.92 12.1944 138.506 12.2498C138.091 12.3052 137.75 12.3791 137.483 12.4714V24.98C137.483 25.3862 137.29 25.5893 136.912 25.5893H132.968Z" fill="#FF6400"/>
<path d="M161.115 25.5531C160.756 25.5531 160.526 25.4147 160.415 25.1469L156.49 19.0911L155.55 20.0973V24.9439C155.55 25.35 155.348 25.5531 154.942 25.5531H151.045C150.64 25.5531 150.437 25.35 150.437 24.9439V2.1144C150.437 1.70822 150.64 1.50513 151.045 1.50513H154.942C155.348 1.50513 155.55 1.70822 155.55 2.1144V13.9861L159.816 8.43796C159.973 8.18871 160.203 8.06871 160.526 8.06871H165.188C165.437 8.06871 165.593 8.13332 165.658 8.2718C165.722 8.41027 165.667 8.57644 165.492 8.77953L159.816 15.4354L166.229 24.8515C166.367 25.0546 166.395 25.2208 166.33 25.3593C166.266 25.4977 166.109 25.5624 165.86 25.5624H161.115V25.5531Z" fill="#FF6400"/>
<path d="M57.1788 37.0736C57.1788 37.5814 57.0775 38.0152 56.8748 38.3753C56.6721 38.7353 56.4049 39.0399 56.064 39.2799C55.7231 39.52 55.3361 39.6954 54.8939 39.8061C54.4516 39.9169 53.9818 39.9723 53.4842 39.9723C52.8117 39.9723 52.2036 39.8615 51.6692 39.6492C51.1348 39.4369 50.5912 39.1045 50.0384 38.6707C49.9463 38.5783 49.937 38.486 50.0015 38.3845L50.6741 37.4336C50.7478 37.3321 50.84 37.3229 50.9413 37.3967C51.3836 37.7106 51.8166 37.9598 52.2312 38.1352C52.6458 38.3106 53.0881 38.4122 53.5487 38.4214C53.7883 38.4214 54.037 38.3937 54.2674 38.3383C54.5069 38.2829 54.7188 38.1999 54.8939 38.0983C55.0782 37.9875 55.2164 37.8491 55.3361 37.6829C55.4467 37.5075 55.502 37.3136 55.502 37.0921C55.502 36.8521 55.4467 36.649 55.3269 36.492C55.2072 36.3351 55.0505 36.2059 54.8478 36.0951C54.6451 35.9843 54.4148 35.9012 54.1568 35.8274C53.8988 35.7628 53.6132 35.6981 53.3184 35.6335C52.9683 35.5597 52.5997 35.4581 52.2128 35.3289C51.8258 35.1996 51.4665 35.0242 51.144 34.7934C50.8215 34.5719 50.5544 34.2857 50.3517 33.9441C50.149 33.6026 50.0384 33.1779 50.0384 32.6702C50.0384 32.1994 50.1398 31.7932 50.324 31.4609C50.5175 31.1193 50.7755 30.8424 51.1072 30.6208C51.4388 30.3993 51.8166 30.2331 52.2588 30.1315C52.6919 30.03 53.1525 29.9746 53.6409 29.9746C54.2213 29.9746 54.7649 30.0577 55.2532 30.2239C55.7415 30.39 56.2667 30.667 56.8103 31.0455C56.9301 31.1193 56.9485 31.2116 56.8656 31.3132L56.2206 32.2456C56.1561 32.3563 56.064 32.3656 55.935 32.2825C55.5296 32.024 55.1334 31.8301 54.7373 31.7101C54.3411 31.5901 53.9357 31.5163 53.5211 31.4978C52.9314 31.4978 52.48 31.6086 52.1667 31.8117C51.8442 32.024 51.6876 32.3102 51.6876 32.6887C51.6876 32.901 51.7429 33.0856 51.8442 33.2333C51.9456 33.381 52.093 33.501 52.2681 33.6026C52.4523 33.7041 52.6642 33.7872 52.913 33.8518C53.1618 33.9165 53.4382 33.9903 53.733 34.0642C54.1292 34.1565 54.5346 34.258 54.94 34.378C55.3453 34.498 55.7139 34.6734 56.0456 34.895C56.3773 35.1165 56.6444 35.4027 56.8564 35.7443C57.0775 36.1043 57.1788 36.5474 57.1788 37.0736Z" fill="#FF6400"/>
<path d="M58.23 35.8459C58.23 35.7167 58.2945 35.6521 58.4327 35.6521H62.5327V35.2736C62.5327 34.8582 62.4037 34.5443 62.1457 34.3412C61.8877 34.1381 61.5376 34.0273 61.1046 34.0273C60.6808 34.0273 60.3214 34.092 60.0266 34.212C59.7318 34.332 59.4554 34.4797 59.2066 34.6551C59.0961 34.7289 59.0039 34.7105 58.9394 34.6182L58.3866 33.8704C58.2945 33.7689 58.3129 33.6766 58.4235 33.5842C58.7828 33.2981 59.1882 33.0673 59.6304 32.9011C60.0727 32.7349 60.5886 32.6519 61.1599 32.6519C61.5376 32.6519 61.9062 32.7072 62.2563 32.818C62.6156 32.9288 62.9288 33.0857 63.2052 33.3073C63.4817 33.5196 63.7028 33.7966 63.8686 34.1289C64.0345 34.4612 64.1174 34.849 64.1174 35.3013V37.2214C64.1174 37.7199 64.0345 38.1446 63.8594 38.4954C63.6843 38.8462 63.4632 39.1324 63.1868 39.3539C62.9104 39.5755 62.588 39.7416 62.2378 39.8432C61.8785 39.9447 61.5192 40.0001 61.1507 40.0001C60.7821 40.0001 60.4228 39.9447 60.0727 39.8432C59.7226 39.7416 59.4093 39.5755 59.1421 39.3539C58.8749 39.1324 58.6538 38.8462 58.488 38.4954C58.3221 38.1446 58.2392 37.7199 58.2392 37.2214V35.8459H58.23ZM59.7594 37.2307C59.7594 37.7292 59.8976 38.08 60.174 38.2923C60.4504 38.5046 60.7729 38.6062 61.1507 38.6062C61.5468 38.6062 61.8785 38.5046 62.1457 38.2923C62.4129 38.08 62.5419 37.7292 62.5419 37.2307V36.8799H59.7594V37.2307Z" fill="#FF6400"/>
<path d="M65.5357 39.8247C65.3975 39.8247 65.333 39.7601 65.333 39.6216V33.4273C65.333 33.3073 65.3791 33.2334 65.4804 33.1873C65.8766 33.0119 66.3004 32.8826 66.7519 32.7903C67.2033 32.698 67.6732 32.6519 68.1615 32.6519C68.6314 32.6519 69.0552 32.7072 69.433 32.818C69.82 32.9288 70.1424 33.1042 70.4188 33.3534C70.6952 33.5935 70.9071 33.9073 71.0638 34.2951C71.2204 34.6828 71.2941 35.1444 71.2941 35.6798V39.6124C71.2941 39.7509 71.2296 39.8155 71.1006 39.8155H69.9305C69.7923 39.8155 69.7278 39.7509 69.7278 39.6124V35.6982C69.7278 35.3844 69.691 35.1167 69.6173 34.9043C69.5436 34.692 69.4422 34.5258 69.304 34.3966C69.1658 34.2674 69.0092 34.1843 68.8065 34.1289C68.613 34.0735 68.3919 34.0458 68.1523 34.0458C67.922 34.0458 67.6824 34.055 67.4613 34.0827C67.231 34.1104 67.0375 34.1474 66.8901 34.1935V39.6032C66.8901 39.7416 66.8256 39.8063 66.6874 39.8063H65.5357V39.8247Z" fill="#FF6400"/>
<path d="M74.2236 30.9808C74.2236 31.23 74.1407 31.4423 73.984 31.6177C73.8182 31.7931 73.6063 31.8762 73.3483 31.8762C73.0995 31.8762 72.8876 31.7931 72.7126 31.6177C72.5375 31.4423 72.4546 31.23 72.4546 30.9808C72.4546 30.7223 72.5375 30.5099 72.7126 30.3438C72.8876 30.1776 73.0995 30.1038 73.3483 30.1038C73.6063 30.1038 73.8182 30.1868 73.984 30.3438C74.1499 30.5007 74.2236 30.713 74.2236 30.9808ZM72.7494 39.8245C72.6112 39.8245 72.5467 39.7599 72.5467 39.6214V33.0024C72.5467 32.8732 72.6112 32.8178 72.7494 32.8178H73.9195C74.0485 32.8178 74.1038 32.8824 74.1038 33.0024V39.6214C74.1038 39.7599 74.0393 39.8245 73.9195 39.8245H72.7494Z" fill="#FF6400"/>
<path d="M75.6334 39.8247C75.4952 39.8247 75.4307 39.7601 75.4307 39.6216V33.4273C75.4307 33.3073 75.4767 33.2334 75.5781 33.1873C75.9743 33.0119 76.3981 32.8826 76.8495 32.7903C77.301 32.698 77.7709 32.6519 78.2592 32.6519C78.7291 32.6519 79.1529 32.7072 79.5306 32.818C79.9176 32.9288 80.2401 33.1042 80.5165 33.3534C80.7929 33.5935 81.0048 33.9073 81.1614 34.2951C81.3181 34.6828 81.3918 35.1444 81.3918 35.6798V39.6124C81.3918 39.7509 81.3273 39.8155 81.1983 39.8155H80.0282C79.89 39.8155 79.8255 39.7509 79.8255 39.6124V35.6982C79.8255 35.3844 79.7886 35.1167 79.7149 34.9043C79.6412 34.692 79.5399 34.5258 79.4017 34.3966C79.2635 34.2674 79.1068 34.1843 78.9041 34.1289C78.7107 34.0735 78.4895 34.0458 78.25 34.0458C78.0196 34.0458 77.7801 34.055 77.559 34.0827C77.3286 34.1104 77.1352 34.1474 76.9877 34.1935V39.6032C76.9877 39.7416 76.9232 39.8063 76.785 39.8063H75.6334V39.8247Z" fill="#FF6400"/>
<path d="M92.2541 32.7991C92.2541 33.2237 92.1712 33.6022 92.0054 33.9253C91.8395 34.2577 91.6 34.5069 91.2959 34.6915C91.7566 34.8854 92.0975 35.1808 92.3278 35.5685C92.5582 35.9563 92.6687 36.4086 92.6687 36.9256C92.6687 37.8395 92.3831 38.5503 91.8027 39.058C91.2222 39.5658 90.4114 39.8242 89.3611 39.8242H85.8508C85.7218 39.8242 85.6665 39.7596 85.6665 39.6212V30.3528C85.6665 30.2143 85.731 30.1497 85.8508 30.1497H89.3611C90.2825 30.1497 90.9919 30.3804 91.4986 30.842C92.0054 31.3036 92.2541 31.959 92.2541 32.7991ZM90.6049 32.8268C90.6049 32.4114 90.4851 32.1067 90.2364 31.9036C89.9968 31.7098 89.6836 31.6082 89.3058 31.6082H87.2789V34.0546H89.3058C89.6836 34.0546 89.9968 33.9623 90.2364 33.7684C90.4851 33.5745 90.6049 33.2607 90.6049 32.8268ZM89.3519 38.3657C89.8402 38.3657 90.2364 38.2549 90.5496 38.0333C90.8629 37.8118 91.0195 37.4425 91.0195 36.9163C91.0195 36.4825 90.8905 36.1409 90.6233 35.8732C90.3562 35.6147 89.9323 35.4762 89.3519 35.4762H87.2973V38.3564H89.3519V38.3657Z" fill="#FF6400"/>
<path d="M93.9775 33.3719C94.3 33.1504 94.687 32.975 95.1292 32.8457C95.5715 32.7165 96.069 32.6519 96.6218 32.6519C97.0456 32.6519 97.4234 32.7072 97.7735 32.818C98.1144 32.9288 98.4092 33.095 98.658 33.3073C98.9067 33.5288 99.1002 33.815 99.2292 34.1566C99.3674 34.5074 99.4319 34.9136 99.4319 35.3936V39.3447C99.4319 39.4555 99.3858 39.5293 99.2845 39.5755C98.9344 39.6862 98.5198 39.7786 98.0407 39.8616C97.5616 39.9447 97.0733 39.9817 96.5665 39.9817C96.1796 39.9817 95.8018 39.9447 95.4425 39.8709C95.0739 39.797 94.7515 39.6678 94.4751 39.4924C94.1987 39.317 93.9775 39.0862 93.8025 38.8C93.6366 38.5138 93.5537 38.1538 93.5537 37.7292C93.5537 37.3599 93.6274 37.0368 93.7656 36.7691C93.913 36.5014 94.1157 36.2706 94.3829 36.0952C94.6501 35.9106 94.9634 35.7813 95.3227 35.6982C95.682 35.6152 96.0782 35.569 96.5112 35.569C96.7324 35.569 96.9627 35.5782 97.2022 35.6059C97.4326 35.6244 97.6537 35.6521 97.8656 35.6798V35.4213C97.8656 34.932 97.7643 34.5812 97.5708 34.3689C97.3773 34.1566 97.018 34.055 96.5204 34.055C96.1795 34.055 95.8571 34.092 95.5623 34.1751C95.2674 34.2581 95.0094 34.3597 94.7883 34.4889C94.6778 34.572 94.5856 34.5535 94.5211 34.4335L93.9775 33.6119C93.9223 33.5012 93.9223 33.4273 93.9775 33.3719ZM95.1384 37.7107C95.1384 38.0246 95.2766 38.2554 95.5438 38.4031C95.811 38.5508 96.1519 38.6154 96.5665 38.6154C96.7876 38.6154 97.018 38.5969 97.2575 38.5692C97.4879 38.5415 97.6906 38.4954 97.8656 38.4585V36.926C97.6813 36.8983 97.4694 36.8706 97.2299 36.8522C96.9903 36.8337 96.76 36.8153 96.5573 36.8153C96.0414 36.8153 95.682 36.8983 95.4609 37.0553C95.249 37.2122 95.1384 37.4338 95.1384 37.7107Z" fill="#FF6400"/>
<path d="M100.906 39.8247C100.768 39.8247 100.703 39.7601 100.703 39.6216V33.4273C100.703 33.3073 100.749 33.2334 100.851 33.1873C101.247 33.0119 101.671 32.8826 102.122 32.7903C102.573 32.698 103.043 32.6519 103.532 32.6519C104.002 32.6519 104.425 32.7072 104.803 32.818C105.19 32.9288 105.513 33.1042 105.789 33.3534C106.065 33.5935 106.277 33.9073 106.434 34.2951C106.591 34.6828 106.664 35.1444 106.664 35.6798V39.6124C106.664 39.7509 106.6 39.8155 106.471 39.8155H105.301C105.162 39.8155 105.098 39.7509 105.098 39.6124V35.6982C105.098 35.3844 105.061 35.1167 104.987 34.9043C104.914 34.692 104.812 34.5258 104.674 34.3966C104.536 34.2674 104.379 34.1843 104.177 34.1289C103.983 34.0735 103.762 34.0458 103.522 34.0458C103.292 34.0458 103.053 34.055 102.831 34.0827C102.601 34.1104 102.408 34.1474 102.26 34.1935V39.6032C102.26 39.7416 102.196 39.8063 102.058 39.8063H100.906V39.8247Z" fill="#FF6400"/>
<path d="M112.359 39.8242C112.23 39.8242 112.147 39.7873 112.101 39.7042L109.981 36.9163L109.512 37.4056V39.6212C109.512 39.7596 109.447 39.8242 109.309 39.8242H108.148C108.01 39.8242 107.945 39.7596 107.945 39.6212V30.3528C107.945 30.2143 108.01 30.1497 108.148 30.1497H109.309C109.447 30.1497 109.512 30.2143 109.512 30.3528V35.4947L111.889 32.9099C111.944 32.8452 112.027 32.8176 112.128 32.8176H113.519C113.612 32.8176 113.667 32.836 113.685 32.8822C113.704 32.9283 113.685 32.9837 113.63 33.0483L111.023 35.8178L113.916 39.575C113.962 39.6488 113.971 39.7042 113.952 39.7504C113.934 39.7966 113.879 39.815 113.787 39.815H112.359V39.8242Z" fill="#FF6400"/>
<path d="M114.993 39.8246C114.855 39.8246 114.791 39.7599 114.791 39.6215V33.0025C114.791 32.8733 114.855 32.8179 114.993 32.8179H116.154C116.292 32.8179 116.357 32.8825 116.357 33.0025V39.6215C116.357 39.7599 116.292 39.8246 116.154 39.8246H114.993Z" fill="#FF6400"/>
<path d="M117.95 39.8247C117.812 39.8247 117.748 39.7601 117.748 39.6216V33.4273C117.748 33.3073 117.794 33.2334 117.895 33.1873C118.291 33.0119 118.715 32.8826 119.166 32.7903C119.618 32.698 120.088 32.6519 120.576 32.6519C121.046 32.6519 121.47 32.7072 121.848 32.818C122.235 32.9288 122.557 33.1042 122.833 33.3534C123.11 33.5935 123.322 33.9073 123.478 34.2951C123.635 34.6828 123.709 35.1444 123.709 35.6798V39.6124C123.709 39.7509 123.644 39.8155 123.515 39.8155H122.345C122.207 39.8155 122.142 39.7509 122.142 39.6124V35.6982C122.142 35.3844 122.106 35.1167 122.032 34.9043C121.958 34.692 121.857 34.5258 121.719 34.3966C121.58 34.2674 121.424 34.1843 121.221 34.1289C121.028 34.0735 120.806 34.0458 120.567 34.0458C120.337 34.0458 120.097 34.055 119.876 34.0827C119.646 34.1104 119.452 34.1474 119.305 34.1935V39.6032C119.305 39.7416 119.24 39.8063 119.102 39.8063H117.95V39.8247Z" fill="#FF6400"/>
<path d="M33.2606 0H35.0111C37.2408 0 37.9871 0.74775 37.9871 3.06485V20.18C36.4116 23.8172 33.9977 27.4544 30.819 30.6762C27.1797 34.2949 23.006 36.9352 18.906 38.4676C14.8797 39.9723 10.3375 39.8523 6.67054 37.6183C2.22965 34.9042 0 30.0577 0 23.0787V22.8571C1.28988 17.9645 4.22897 12.7856 8.60537 8.39142C9.83997 7.1544 11.1391 6.03739 12.4658 5.04039V22.6633C12.4658 26.799 14.7784 28.8668 19.4865 28.8668C21.3844 28.8668 23.1995 28.7007 24.9408 28.2853C25.3554 28.1191 25.5213 27.7868 25.5213 27.3713V7.75444C25.5213 3.47104 28.9855 0 33.2606 0ZM32.9013 32.7625C29.7963 35.8458 26.3689 38.2737 22.8954 39.9815C27.2442 39.5846 31.2244 38.6707 34.7716 37.2306C37.4158 36.1505 37.9963 35.1627 37.9963 32.4302V26.439C36.5682 28.636 34.8729 30.7685 32.9013 32.7625ZM6.51391 6.3051C8.34739 4.47727 10.2914 2.88022 12.2907 1.53243C11.9591 0.406188 11.1299 0 9.48986 0H7.7393C3.46426 0 0 3.47104 0 7.75444V14.955C1.64921 11.9455 3.8328 9.00069 6.51391 6.3051Z" fill="#FF6400"/>
</svg>
